<svg xmlns="http://www.w3.org/2000/svg" width="15" height="15" viewBox="0 0 15 15">
  <defs>
    <style>
      .cls-1 {
        fill: #fff;
        fill-rule: evenodd;
      }
    </style>
  </defs>
  <path id="icon" class="cls-1" d="M870.428,1767v-5.66c0-1.37-.553-2.16-1.42-2.16a2.176,2.176,0,0,0-1.839.98,2.231,2.231,0,0,0-.2.94v5.87L864,1767v-11l2.6,0.18,0.149,1.88h0.064a3.573,3.573,0,0,1,3.209-1.71c2.122,0,3.99,1.44,3.99,4.57v6.05ZM859,1756h3v11l-3-.03V1756Zm1.711-.7a1.656,1.656,0,1,1,1.743-1.66A1.629,1.629,0,0,1,860.711,1755.3Z" transform="translate(-859 -1752)"/>
</svg>
