<svg xmlns="http://www.w3.org/2000/svg" width="20.094" height="24.656" viewBox="0 0 20.094 24.656">
  <defs>
    <style>
      .cls-1 {
        fill: #f4f4f4;
        fill-rule: evenodd;
      }
    </style>
  </defs>
  <path id="icon" class="cls-1" d="M360.771,406.814a5.578,5.578,0,0,1,2.662-4.694,5.755,5.755,0,0,0-4.508-2.443c-1.921-.195-3.748,1.13-4.721,1.13s-2.477-1.1-4.069-1.072a6.03,6.03,0,0,0-5.1,3.091c-2.174,3.773-.557,9.362,1.562,12.422,1.036,1.5,2.271,3.181,3.893,3.12,1.56-.061,2.151-1.009,4.039-1.009s2.418,1.009,4.07.978c1.68-.03,2.745-1.526,3.773-3.029a13.709,13.709,0,0,0,1.709-3.506A5.446,5.446,0,0,1,360.771,406.814Zm-3.1-9.164a5.43,5.43,0,0,0,1.282-3.936,5.518,5.518,0,0,0-3.631,1.866,5.172,5.172,0,0,0-1.309,3.816A4.574,4.574,0,0,0,357.667,397.65Z" transform="translate(-344 -393.719)"/>
</svg>
