<svg xmlns="http://www.w3.org/2000/svg" width="21.594" height="24.656" viewBox="0 0 21.594 24.656">
  <defs>
    <style>
      .cls-1 {
        fill: #f4f4f4;
        fill-rule: evenodd;
      }
    </style>
  </defs>
  <path id="icon" class="cls-1" d="M432.634,402.96a1.545,1.545,0,0,0-1.541,1.541v6.164a1.541,1.541,0,1,0,3.082,0V404.5A1.545,1.545,0,0,0,432.634,402.96Zm-18.493,0a1.545,1.545,0,0,0-1.54,1.541v6.164a1.541,1.541,0,1,0,3.082,0V404.5A1.545,1.545,0,0,0,414.141,402.96Zm2.312,10.016a2.312,2.312,0,0,0,2.312,2.312h0.77v3.082a1.541,1.541,0,0,0,3.082,0v-3.082h1.541v3.082a1.541,1.541,0,0,0,3.082,0v-3.082h0.771a2.311,2.311,0,0,0,2.311-2.312V404.5H416.453v8.475Zm9.79-15.566,0.975-1.874a0.192,0.192,0,1,0-.341-0.178l-0.99,1.9a6.962,6.962,0,0,0-5,0l-0.99-1.9a0.193,0.193,0,1,0-.342.178l0.975,1.874a6.938,6.938,0,0,0-4.036,5.55h13.783A6.936,6.936,0,0,0,426.243,397.41Zm-5.937,4.355a1.117,1.117,0,1,1,1.117-1.117A1.118,1.118,0,0,1,420.306,401.765Zm6.164,0a1.117,1.117,0,1,1,1.117-1.117A1.118,1.118,0,0,1,426.47,401.765Z" transform="translate(-412.594 -395.25)"/>
</svg>
