<svg xmlns="http://www.w3.org/2000/svg" width="47" height="47" viewBox="0 0 47 47">
  <defs>
    <style>
      .cls-1 {
        fill: #fff;
        fill-rule: evenodd;
      }
    </style>
  </defs>
  <path id="icon" class="cls-1" d="M1227.5,698.469a22.031,22.031,0,1,1-22.03,22.031A22.028,22.028,0,0,1,1227.5,698.469Zm0-1.469a23.5,23.5,0,1,1-23.5,23.5A23.5,23.5,0,0,1,1227.5,697Zm0,5.875a17.625,17.625,0,1,1-17.62,17.625A17.632,17.632,0,0,1,1227.5,702.875Zm-6.24,6.7c-1.65,0-3.4,5.416-3.86,6.151a4.426,4.426,0,0,1-3.39,1.56c-1.47,0-1.2.734-2.02,1.193s-0.83-.459-1.66.092,0.19,3.121.19,4.682,2.29,3.029,2.48,4.314,4.13,1.469,4.13,1.469l1.28,0.918,1.84,0.367,1.65-2.295,2.02,2.02s0.64,2.57,1.29,2.57,0.64-3.121.27-4.039a9.613,9.613,0,0,1-.46-2.2c-0.18-.918.92-2.479,1.19-3.58s1.66-1.377,1.75-3.3-0.09-1.01-2.57-1.285-0.74-.459-2.11-0.459c-0.92.826-1.2-.367-1.84-1.1s-0.73-5.14.74-4.957-0.74.551,1.1-1.652C1225.04,707.915,1222.91,709.576,1221.26,709.576Zm12.02,18.91c-0.73.092-.64,0.918-1.56,1.1s-1.19,0-1.93,1.01-2.57.459-2.01,1.1,2.54,2.2,3.94,2.2c1.65,0,2.48-1.1,4.13-.826s1.38-2.387,2.67-2.2-1.75-.275-2.21-1.1A3.958,3.958,0,0,0,1233.28,728.486Zm13.96-16.8c0-1.193-4.69-2.478-4.04-3.029s-5.24,2.2-4.5.918-3.21-2.019-4.41-1.928-1.4,3.747-.92,4.131c-0.06-.049,2.76,4.241,2.76,4.5,0,0.551.73,2.479,0,2.754s-2.3,4.59-1.56,5.141,4.13-2.111,4.13-2.111,2.79-.255,3.21-1.928c0.19-.735,3.03-0.735,3.95-1.469S1247.24,712.881,1247.24,711.687Zm-28.2-6.206c4.04-2.754,6.68-2.33,8.34-2.028,1.01,0.184,3.09.4,3.09,0.4l-2.49,3.85-1.68-.46s-4.37,2.933-5.67.726-2.93.351-5.46,2.493S1215,708.235,1219.04,705.481Zm21.6,1.764c-0.46.585,0.19,1.1-.33,1.883s-0.84.844-.65,2.077-1.49,2.142-.65,2.207,3.36-.238,4.35-1.233c1.17-1.169.98-2.532,2.34-3.506s-0.72-2.661.32-3.44-1.42,1.039-2.33.779A3.955,3.955,0,0,0,1240.64,707.245Z" transform="translate(-1204 -697)"/>
</svg>
