<svg xmlns="http://www.w3.org/2000/svg" width="43" height="43" viewBox="0 0 43 43">
  <defs>
    <style>
      .cls-1 {
        fill: #fff;
        fill-rule: evenodd;
      }
    </style>
  </defs>
  <path id="icon" class="cls-1" d="M390,722.241v-5.5l-4.595-.368a17.068,17.068,0,0,0-.7-2.636l3.793-2.614-2.751-4.763-4.165,1.98a17.358,17.358,0,0,0-1.927-1.927l1.98-4.166-4.764-2.75-2.614,3.793a17.068,17.068,0,0,0-2.636-.7l-0.369-4.6h-5.5l-0.368,4.6a17.068,17.068,0,0,0-2.636.7l-2.614-3.792-4.764,2.749,1.98,4.166a17.273,17.273,0,0,0-1.927,1.927l-4.165-1.98-2.75,4.764,3.792,2.613a17.048,17.048,0,0,0-.7,2.637l-4.6.368v5.5l4.6,0.368a17.066,17.066,0,0,0,.7,2.636l-3.791,2.614,2.75,4.763,4.164-1.979a17.282,17.282,0,0,0,1.928,1.927l-1.98,4.165,4.764,2.75,2.613-3.792a17.068,17.068,0,0,0,2.636.7l0.368,4.6h5.5l0.368-4.6a17.068,17.068,0,0,0,2.636-.7l2.614,3.792,4.764-2.75-1.98-4.165a17.282,17.282,0,0,0,1.927-1.928l4.165,1.98,2.751-4.763-3.793-2.614a17.1,17.1,0,0,0,.7-2.636Zm-21.5,1.55a4.3,4.3,0,1,1,4.3-4.3A4.3,4.3,0,0,1,368.5,723.791Z" transform="translate(-347 -698)"/>
</svg>
