<svg xmlns="http://www.w3.org/2000/svg" width="48" height="48" viewBox="0 0 48 48">
  <defs>
    <style>
      .cls-1 {
        fill: #fff;
        fill-rule: evenodd;
      }
    </style>
  </defs>
  <path id="icon" class="cls-1" d="M790.029,730L805,724.281,821,712l-23.953-3.938L773,712l16.991,18.021Zm6.924-36L785.1,719.51l-3.025,22.4,22.069-11.923L821,712H773l39.018,29.906-2.611-22.473Zm-5.895,36L805,724.281,821,712l-23.953-3.938L773,712l18.021,18.021,21,11.885Zm5.895-36-14.877,47.906L821,712H773l34.536,7.62Zm15.158,48-21.146-12L809.4,719.312Z" transform="translate(-773 -694)"/>
</svg>
